<svg xmlns="http://www.w3.org/2000/svg" version="1.1" xmlns:xlink="http://www.w3.org/1999/xlink" viewBox="0 0 200 200" width="200" height="200"><metadata><rdf:RDF xmlns:rdf="http://www.w3.org/1999/02/22-rdf-syntax-ns#" xmlns:dc="http://purl.org/dc/elements/1.1/"><rdf:Description><dc:creator>RealFaviconGenerator</dc:creator><dc:source>https://realfavicongenerator.net</dc:source></rdf:Description></rdf:RDF></metadata><rect width="200" height="200" fill="url('#gradient')"></rect><defs><linearGradient id="gradient" gradientTransform="rotate(0 0.5 0.5)"><stop offset="0%" stop-color="#d03f91"></stop><stop offset="100%" stop-color="#150425"></stop></linearGradient></defs><g><g fill="#ffffff" transform="matrix(1.2509341764874964,0,0,1.2509341764874964,15.036629624058719,106.84135977308378)" stroke="#000000" stroke-width="0.3"><path d="M9.98 0L9.15-2.66L4.45-2.66L3.63 0L-0.03 0L5.19-14.22L8.41-14.22L13.66 0L9.98 0ZM6.80-10.23L5.27-5.30L8.33-5.30L6.80-10.23ZM21.00-10.64L20.94-7.59L19.85-7.67Q18.30-7.67 17.86-6.69L17.86-6.69L17.86 0L14.57 0L14.57-10.57L17.66-10.57L17.76-9.21Q18.59-10.76 20.08-10.76L20.08-10.76Q20.61-10.76 21.00-10.64L21.00-10.64ZM23.15-13.19L26.45-13.19L26.45-10.57L28.18-10.57L28.18-8.28L26.45-8.28L26.45-3.45Q26.45-2.85 26.66-2.62Q26.88-2.38 27.51-2.38L27.51-2.38Q28.00-2.38 28.33-2.44L28.33-2.44L28.33-0.09Q27.44 0.20 26.47 0.20L26.47 0.20Q24.78 0.20 23.96-0.61Q23.15-1.41 23.15-3.04L23.15-3.04L23.15-8.28L21.81-8.28L21.81-10.57L23.15-10.57L23.15-13.19ZM32.95-10.57L32.95 0L29.65 0L29.65-10.57L32.95-10.57ZM29.45-13.29L29.45-13.29Q29.45-13.99 29.96-14.44Q30.47-14.89 31.28-14.89Q32.09-14.89 32.60-14.44Q33.11-13.99 33.11-13.29Q33.11-12.59 32.60-12.14Q32.09-11.69 31.28-11.69Q30.47-11.69 29.96-12.14Q29.45-12.59 29.45-13.29ZM39.00 0L35.70 0L35.70-8.28L34.17-8.28L34.17-10.57L35.70-10.57L35.70-11.41Q35.70-13.21 36.77-14.21Q37.83-15.21 39.76-15.21L39.76-15.21Q40.46-15.21 41.30-15L41.30-15L41.31-12.58Q41.01-12.67 40.50-12.67L40.50-12.67Q39.00-12.67 39.00-11.38L39.00-11.38L39.00-10.57L41.06-10.57L41.06-8.28L39.00-8.28L39.00 0ZM44.78-10.57L46.45-4.61L48.20-10.57L51.73-10.57L47.42 1.77L47.24 2.22Q46.32 4.27 43.99 4.27L43.99 4.27Q43.35 4.27 42.64 4.07L42.64 4.07L42.64 1.72L43.07 1.72Q43.76 1.72 44.13 1.52Q44.49 1.32 44.67 0.80L44.67 0.80L44.93 0.10L41.26-10.57L44.78-10.57ZM63.33-4.82L61.14-4.82L61.14 0L57.71 0L57.71-14.22L63.39-14.22Q65.02-14.22 66.27-13.62Q67.53-13.02 68.22-11.91Q68.91-10.80 68.91-9.39L68.91-9.39Q68.91-7.31 67.42-6.07Q65.93-4.82 63.33-4.82L63.33-4.82ZM61.14-11.57L61.14-7.47L63.39-7.47Q64.38-7.47 64.91-7.97Q65.43-8.47 65.43-9.38L65.43-9.38Q65.43-10.37 64.89-10.97Q64.36-11.56 63.43-11.57L63.43-11.57L61.14-11.57ZM70.05-4.82L70.04-5.38Q70.04-6.96 70.65-8.20Q71.27-9.43 72.42-10.10Q73.57-10.76 75.13-10.76L75.13-10.76Q77.50-10.76 78.87-9.29Q80.23-7.82 80.23-5.29L80.23-5.29L80.23-5.18Q80.23-2.71 78.86-1.25Q77.49 0.20 75.15 0.20L75.15 0.20Q72.89 0.20 71.52-1.16Q70.16-2.51 70.05-4.82L70.05-4.82ZM73.34-5.77L73.33-5.18Q73.33-3.71 73.79-3.03Q74.25-2.34 75.15-2.34L75.15-2.34Q76.90-2.34 76.94-5.05L76.94-5.05L76.94-5.38Q76.94-8.22 75.13-8.22L75.13-8.22Q73.48-8.22 73.34-5.77L73.34-5.77ZM88.13-10.64L88.08-7.59L86.99-7.67Q85.44-7.67 85-6.69L85-6.69L85 0L81.71 0L81.71-10.57L84.79-10.57L84.90-9.21Q85.73-10.76 87.22-10.76L87.22-10.76Q87.74-10.76 88.13-10.64L88.13-10.64ZM90.29-13.19L93.58-13.19L93.58-10.57L95.32-10.57L95.32-8.28L93.58-8.28L93.58-3.45Q93.58-2.85 93.80-2.62Q94.01-2.38 94.65-2.38L94.65-2.38Q95.14-2.38 95.47-2.44L95.47-2.44L95.47-0.09Q94.58 0.20 93.61 0.20L93.61 0.20Q91.91 0.20 91.10-0.61Q90.29-1.41 90.29-3.04L90.29-3.04L90.29-8.28L88.95-8.28L88.95-10.57L90.29-10.57L90.29-13.19ZM100.64 0L97.34 0L97.34-8.28L95.81-8.28L95.81-10.57L97.34-10.57L97.34-11.41Q97.34-13.21 98.41-14.21Q99.47-15.21 101.40-15.21L101.40-15.21Q102.10-15.21 102.94-15L102.94-15L102.95-12.58Q102.65-12.67 102.14-12.67L102.14-12.67Q100.64-12.67 100.64-11.38L100.64-11.38L100.64-10.57L102.71-10.57L102.71-8.28L100.64-8.28L100.64 0ZM103.46-4.82L103.45-5.38Q103.45-6.96 104.06-8.20Q104.68-9.43 105.83-10.10Q106.98-10.76 108.54-10.76L108.54-10.76Q110.91-10.76 112.28-9.29Q113.64-7.82 113.64-5.29L113.64-5.29L113.64-5.18Q113.64-2.71 112.27-1.25Q110.90 0.20 108.55 0.20L108.55 0.20Q106.30 0.20 104.93-1.16Q103.56-2.51 103.46-4.82L103.46-4.82ZM106.75-5.77L106.74-5.18Q106.74-3.71 107.20-3.03Q107.66-2.34 108.55-2.34L108.55-2.34Q110.31-2.34 110.35-5.05L110.35-5.05L110.35-5.38Q110.35-8.22 108.54-8.22L108.54-8.22Q106.88-8.22 106.75-5.77L106.75-5.77ZM118.56-15L118.56 0L115.26 0L115.26-15L118.56-15ZM124.06-10.57L124.06 0L120.76 0L120.76-10.57L124.06-10.57ZM120.57-13.29L120.57-13.29Q120.57-13.99 121.07-14.44Q121.58-14.89 122.39-14.89Q123.20-14.89 123.71-14.44Q124.22-13.99 124.22-13.29Q124.22-12.59 123.71-12.14Q123.20-11.69 122.39-11.69Q121.58-11.69 121.07-12.14Q120.57-12.59 120.57-13.29ZM125.68-4.82L125.67-5.38Q125.67-6.96 126.29-8.20Q126.90-9.43 128.06-10.10Q129.21-10.76 130.76-10.76L130.76-10.76Q133.13-10.76 134.50-9.29Q135.87-7.82 135.87-5.29L135.87-5.29L135.87-5.18Q135.87-2.71 134.50-1.25Q133.13 0.20 130.78 0.20L130.78 0.20Q128.53 0.20 127.16-1.16Q125.79-2.51 125.68-4.82L125.68-4.82ZM128.97-5.77L128.96-5.18Q128.96-3.71 129.42-3.03Q129.88-2.34 130.78-2.34L130.78-2.34Q132.54-2.34 132.58-5.05L132.58-5.05L132.58-5.38Q132.58-8.22 130.76-8.22L130.76-8.22Q129.11-8.22 128.97-5.77L128.97-5.77Z"></path></g></g></svg>